<svg xmlns="http://www.w3.org/2000/svg" viewBox="0 0 647.21 1148.03"><defs><style>.cls-1{fill:#fcfcfc;}.cls-2{fill:#ddd;}.cls-3{fill:#0d61fe;}.cls-4{fill:#e5e5e5;}.cls-5{fill:#e6e7e6;}</style></defs><g id="Livello_2" data-name="Livello 2"><g id="Livello_1-2" data-name="Livello 1"><path class="cls-1" d="M646.1,574.61q-.52,285.35-1,570.68c0,2.24-.51,2.75-2.75,2.74q-319.8-.67-639.61-1.18c-2.24,0-2.74-.51-2.74-2.75Q1.14,573.42,2.11,2.74C2.12.5,2.62,0,4.86,0q319.8.68,639.62,1.18c2.23,0,2.74.51,2.73,2.75Q646.59,289.27,646.1,574.61Z"/><path class="cls-2" d="M358.45,100.3c0,.89.07,1.78.06,2.68q-.18,105.57-.39,211.15c0,.9,0,1.79-.07,2.69a67.53,67.53,0,0,1-9.43.44,7,7,0,0,0,.56-3.49q.18-105.22.39-210.46a7,7,0,0,0-.55-3.49A66,66,0,0,1,358.45,100.3Z"/><path class="cls-2" d="M358.21,577.72a6.1,6.1,0,0,0-.58,3.47q-.17,95-.35,190a6.1,6.1,0,0,0,.57,3.47c-3.34.48-6.7.55-10.06.7a8.1,8.1,0,0,0,.54-3.8q.17-95.4.35-190.81a8.07,8.07,0,0,0-.52-3.8C351.51,577.15,354.88,577.23,358.21,577.72Z"/><path class="cls-2" d="M348,975.41q.17-88.6.32-177.22c0-1.48.2-3-.52-4.39,3.36.15,6.73.24,10.06.72a6.14,6.14,0,0,0-.58,3.48q-.15,88.68-.32,177.36A21.15,21.15,0,0,1,348,975.41Z"/><path class="cls-2" d="M347.68,1129.51q.12-67.18.23-134.37a21.19,21.19,0,0,1,9,.09l-.28,134.3c-1,2.14-.83,4.43-1,6.69a4.21,4.21,0,0,1-1.69,3.6,3.27,3.27,0,0,1-5.26-2.43C348.39,1134.76,348.72,1132.05,347.68,1129.51Z"/><path class="cls-2" d="M357.88,454.11q-.11,50.16-.2,100.32a6.11,6.11,0,0,0,.57,3.47c-3.34.47-6.7.55-10.06.69a8.64,8.64,0,0,0,.54-4.09q.09-50.24.19-100.48A21.31,21.31,0,0,1,357.88,454.11Z"/><path class="cls-2" d="M349,434.3q.09-46.95.17-93.89c0-1.38.18-2.79-.54-4.07a66.19,66.19,0,0,1,9.44.47l-.09,84.62q0,6.4,0,12.81A21.36,21.36,0,0,1,349,434.3Z"/><path class="cls-2" d="M349.05,80.74a7.26,7.26,0,0,0,.56-3.77l.09-41.63c1.18-2.49,0-5.06.3-7.59.37-3.12,1.49-4.17,4.61-4,2.19.11,3.38,1,3.51,3.42s-.36,5.12.51,7.59q-.06,22.78-.14,45.55A64.74,64.74,0,0,1,349.05,80.74Z"/><path class="cls-3" d="M349.05,80.74a13.53,13.53,0,0,1,9.44-.44c4.49,2.78,7.06,6.54,6.11,12.07-.64,3.73-3.16,6-6.15,7.93a13.56,13.56,0,0,1-9.43-.48C341.52,93.94,341.53,86.59,349.05,80.74Z"/><path class="cls-3" d="M358,336.81a13.53,13.53,0,0,1-9.44-.48c-7.5-5.87-7.48-13.23,0-19.07a13.5,13.5,0,0,1,9.43-.44c4.49,2.78,7.07,6.53,6.12,12.07C363.52,332.62,361,334.9,358,336.81Z"/><path class="cls-3" d="M349,434.3a14.69,14.69,0,0,1,9-.06c8.57,5.93,8.55,14,0,19.87a14.74,14.74,0,0,1-9-.09c-6.35-4.55-7.9-11-4-16.25A19.47,19.47,0,0,1,349,434.3Z"/><path class="cls-3" d="M356.88,995.23a14.77,14.77,0,0,1-9-.09c-6.34-4.59-7.88-11-4-16.25a19.47,19.47,0,0,1,4-3.47,14.66,14.66,0,0,1,9-.06C365.48,981.28,365.47,989.33,356.88,995.23Z"/><path class="cls-3" d="M348.19,558.59a12.9,12.9,0,0,1,10.06-.69c8.59,5.66,8.58,14.17,0,19.82a12.88,12.88,0,0,1-10-.73C341.46,571.17,341.47,564.38,348.19,558.59Z"/><path class="cls-3" d="M357.81,794.52a13,13,0,0,1-10.06-.72c-6.69-5.84-6.68-12.6,0-18.4a12.86,12.86,0,0,1,10.06-.69C366.44,780.38,366.43,788.88,357.81,794.52Z"/><path class="cls-4" d="M347.68,1129.51c1.86,2.13,1.85,4.72,1.75,7.3-.06,1.73.31,2.94,2.41,2.88,1.94-.06,3-1,3-2.91,0-2.57-.31-5.2,1.79-7.25.15,3.11.92,6.14.08,9.34-1,3.92-4,2.36-6.26,2.54s-2.82-1.34-2.79-3.31C347.69,1135.24,347.67,1132.38,347.68,1129.51Z"/><path class="cls-5" d="M358.63,34.75c-1.69-2.17-1.2-4.73-1.12-7.16s-1-3.05-3.2-3.05-3.48.43-3.49,3.1,1,5.4-1.12,7.7c-.07-3.31-1.15-6.55-.09-9.94s3.56-2.55,5.79-2.54c2,0,3.15.86,3.35,3.22A44,44,0,0,1,358.63,34.75Z"/></g></g></svg>