<svg xmlns="http://www.w3.org/2000/svg" viewBox="0 0 713.65 108.28"><defs><style>.cls-1{fill:#fefefe;}.cls-2{fill:#ddd;}.cls-3{fill:none;stroke:#ddd;stroke-miterlimit:10;}.cls-4{fill:#0d61fe;}</style></defs><g id="Livello_2" data-name="Livello 2"><g id="Livello_1-2" data-name="Livello 1"><path class="cls-1" d="M356.86,63.32C238.79,61.51,115.58,66.78,0,61.56.12,56.7.07,51.83,0,47c0-.9.19-1.18,1.05-1q355.34,0,710.69,0c1.59,0,1.93.36,1.89,1.9-.12,4.8-.08,9.61,0,14.41C596.87,65.44,475.23,62.21,356.86,63.32Z"/><path class="cls-2" d="M62,51.54q67.32-.12,134.66,0a42.23,42.23,0,0,1,.28,5.84c-44.89-.65-90.33-.65-135.22,0A42.23,42.23,0,0,1,62,51.54Z"/><path class="cls-2" d="M481.85,57.37c-41-.63-82.42-.63-123.39,0,.11-2.08.15-4.16.44-6.23,40.62.68,81.89.68,122.51,0C481.7,53.21,481.75,55.29,481.85,57.37Z"/><path class="cls-2" d="M606.25,57c-37.61.32-75.44-.62-112.95.33.1-2.08.15-4.16.44-6.23,37.32,1,75,0,112.46.35A13.31,13.31,0,0,1,606.25,57Z"/><path class="cls-2" d="M618.56,51.49H706.2c2.72,0,3.51.82,3.32,3.38A2.08,2.08,0,0,1,707.27,57q-44.38,0-88.75,0A13.48,13.48,0,0,1,618.56,51.49Z"/><path class="cls-2" d="M347,57.37c-21.54-.94-43.38,0-65-.33a13.31,13.31,0,0,1,0-5.55c21.47-.34,43.2.67,64.55-.35C346.86,53.21,346.91,55.29,347,57.37Z"/><path class="cls-2" d="M209.08,51.54l60.59,0a13.31,13.31,0,0,1,0,5.55c-20.26.32-40.76-.63-60.92.34A43.85,43.85,0,0,1,209.08,51.54Z"/><path class="cls-2" d="M49.83,57.38c-11-.94-22.41-.08-33.56-.31-2.06,0-2.13-1.1-2.12-2.58,0-2.59.23-3,2.15-3,11.08,0,22.16,0,33.24,0A43.85,43.85,0,0,1,49.83,57.38Z"/><line class="cls-3" x1="55.81" y1="54.18" x2="55.73" y2="0.09"/><line class="cls-3" x1="202.9" y1="108.28" x2="202.81" y2="54.18"/><line class="cls-3" x1="275.89" y1="54.92" x2="275.8" y2="0.83"/><line class="cls-3" x1="352.8" y1="108.04" x2="352.72" y2="53.94"/><line class="cls-3" x1="487.62" y1="54.1" x2="487.53"/><line class="cls-3" x1="612.43" y1="107.82" x2="612.34" y2="53.73"/><path class="cls-4" d="M269.71,57a9.07,9.07,0,0,1,0-5.55c3.67-5.31,8.68-5.31,12.36,0A9.07,9.07,0,0,1,282,57C278.25,62.28,273.06,62,269.71,57Z"/><path class="cls-4" d="M618.56,51.49c3.53,12.26-15.88,12.25-12.36,0C609.87,46.18,614.89,46.18,618.56,51.49Z"/><path class="cls-4" d="M347,57.37a8,8,0,0,1-.43-6.23c3.5-5.32,8.8-5.32,12.32,0A6.75,6.75,0,0,1,347,57.37Z"/><path class="cls-4" d="M493.74,51.14c3.48,12.23-15.81,12.22-12.33,0C484.93,45.82,490.22,45.82,493.74,51.14Z"/><path class="cls-4" d="M49.83,57.38a8.34,8.34,0,0,1-.29-5.84,6.93,6.93,0,0,1,12.44,0A6.76,6.76,0,0,1,49.83,57.38Z"/><path class="cls-4" d="M209.08,51.54c3.23,12.21-15.68,12.2-12.44,0A6.93,6.93,0,0,1,209.08,51.54Z"/></g></g></svg>