<svg xmlns="http://www.w3.org/2000/svg" viewBox="0 0 713.65 330.41"><defs><style>.cls-1{fill:#fefefe;}.cls-2{fill:#ddd;}.cls-3,.cls-4{fill:none;}.cls-4{stroke:#ddd;stroke-miterlimit:10;}.cls-5{fill:#0d61fe;}</style></defs><g id="Livello_2" data-name="Livello 2"><g id="Livello_1-2" data-name="Livello 1"><path class="cls-1" d="M356.86,175.66C238.79,173.85,115.58,179.12,0,173.9c.12-4.87.07-9.73,0-14.6,0-.89.19-1.18,1.05-1q355.34,0,710.69,0c1.59,0,1.93.35,1.89,1.9-.12,4.8-.08,9.6,0,14.41C596.87,177.78,475.23,174.55,356.86,175.66Z"/><path class="cls-2" d="M62,163.88q67.32-.12,134.66,0a42.15,42.15,0,0,1,.28,5.84c-44.89-.65-90.33-.66-135.22,0A42.15,42.15,0,0,1,62,163.88Z"/><path class="cls-2" d="M481.85,169.7c-41-.62-82.42-.62-123.39,0,.11-2.07.15-4.16.44-6.22,40.62.68,81.89.68,122.51,0C481.7,165.54,481.75,167.63,481.85,169.7Z"/><path class="cls-2" d="M606.25,169.38c-37.61.32-75.44-.62-112.95.33.1-2.08.15-4.17.44-6.23,37.32,1,75,0,112.46.35A13.31,13.31,0,0,1,606.25,169.38Z"/><path class="cls-2" d="M618.56,163.83H706.2c2.72,0,3.51.81,3.32,3.37a2.08,2.08,0,0,1-2.25,2.16q-44.38,0-88.75,0A13.48,13.48,0,0,1,618.56,163.83Z"/><path class="cls-2" d="M347,169.71c-21.54-.94-43.38,0-65-.34a13.26,13.26,0,0,1,0-5.54c21.47-.34,43.2.66,64.55-.35C346.86,165.55,346.91,167.63,347,169.71Z"/><path class="cls-2" d="M209.08,163.88l60.59,0a13.26,13.26,0,0,1,0,5.54c-20.26.33-40.76-.62-60.92.35A43.77,43.77,0,0,1,209.08,163.88Z"/><path class="cls-2" d="M49.83,169.72c-11-.94-22.41-.08-33.56-.31-2.06,0-2.13-1.1-2.12-2.59,0-2.59.23-3,2.15-3q16.62,0,33.24,0A43.77,43.77,0,0,1,49.83,169.72Z"/><line class="cls-3" x1="56.06" y1="14.36" x2="55.56" y2="160.38"/><line class="cls-3" x1="57.06" y1="14.36" x2="56.56" y2="160.38"/><line class="cls-3" x1="56.06" y1="14.36" x2="55.56" y2="160.38"/><line class="cls-4" x1="55.78" x2="55.78" y2="163.82"/><line class="cls-4" x1="202.86" y1="166.52" x2="202.86" y2="330.34"/><line class="cls-4" x1="275.85" y1="3.44" x2="275.85" y2="167.26"/><line class="cls-4" x1="352.76" y1="166.52" x2="352.76" y2="330.34"/><line class="cls-4" x1="487.57" y1="2.25" x2="487.57" y2="166.06"/><line class="cls-4" x1="612.38" y1="166.59" x2="612.38" y2="330.41"/><path class="cls-5" d="M269.71,169.37a9,9,0,0,1,0-5.54c3.67-5.31,8.68-5.31,12.36,0a9,9,0,0,1,0,5.54C278.25,174.61,273.06,174.33,269.71,169.37Z"/><path class="cls-5" d="M618.56,163.83c3.53,12.26-15.88,12.25-12.36,0C609.87,158.52,614.89,158.52,618.56,163.83Z"/><path class="cls-5" d="M347,169.71a8,8,0,0,1-.43-6.23c3.5-5.32,8.8-5.33,12.32,0A6.75,6.75,0,0,1,347,169.71Z"/><path class="cls-5" d="M493.74,163.48c3.48,12.22-15.81,12.21-12.33,0C484.93,158.15,490.22,158.15,493.74,163.48Z"/><path class="cls-5" d="M49.83,169.72a8.34,8.34,0,0,1-.29-5.84,6.93,6.93,0,0,1,12.44,0A6.76,6.76,0,0,1,49.83,169.72Z"/><path class="cls-5" d="M209.08,163.88c3.23,12.21-15.68,12.19-12.44,0A6.93,6.93,0,0,1,209.08,163.88Z"/></g></g></svg>