<svg xmlns="http://www.w3.org/2000/svg" viewBox="0 0 713.65 206.26"><defs><style>.cls-1{fill:#fefefe;}.cls-2{fill:#ddd;}.cls-3,.cls-4{fill:none;}.cls-4{stroke:#ddd;stroke-miterlimit:10;}.cls-5{fill:#0d61fe;}</style></defs><g id="Livello_2" data-name="Livello 2"><g id="Livello_1-2" data-name="Livello 1"><path class="cls-1" d="M356.86,161.3C238.79,159.49,115.58,164.76,0,159.54c.12-4.87.07-9.73,0-14.6,0-.89.19-1.18,1.05-1q355.34,0,710.69,0c1.59,0,1.93.36,1.89,1.9-.12,4.8-.08,9.61,0,14.41C596.87,163.42,475.23,160.19,356.86,161.3Z"/><path class="cls-2" d="M62,149.52q67.32-.12,134.66,0a42.15,42.15,0,0,1,.28,5.84c-44.89-.65-90.33-.65-135.22,0A42.23,42.23,0,0,1,62,149.52Z"/><path class="cls-2" d="M481.85,155.35c-41-.63-82.42-.63-123.39,0,.11-2.08.15-4.16.44-6.23,40.62.68,81.89.68,122.51,0C481.7,151.19,481.75,153.27,481.85,155.35Z"/><path class="cls-2" d="M606.25,155c-37.61.32-75.44-.62-112.95.33.1-2.08.15-4.16.44-6.23,37.32,1,75,0,112.46.35A13.31,13.31,0,0,1,606.25,155Z"/><path class="cls-2" d="M618.56,149.47H706.2c2.72,0,3.51.82,3.32,3.37a2.08,2.08,0,0,1-2.25,2.16q-44.38,0-88.75,0A13.48,13.48,0,0,1,618.56,149.47Z"/><path class="cls-2" d="M347,155.35c-21.54-.94-43.38,0-65-.33a13.31,13.31,0,0,1,0-5.55c21.47-.34,43.2.66,64.55-.35C346.86,151.19,346.91,153.27,347,155.35Z"/><path class="cls-2" d="M209.08,149.52l60.59-.05a13.31,13.31,0,0,1,0,5.55c-20.26.32-40.76-.63-60.92.34A43.85,43.85,0,0,1,209.08,149.52Z"/><path class="cls-2" d="M49.83,155.36c-11-.94-22.41-.08-33.56-.31-2.06,0-2.13-1.1-2.12-2.58,0-2.6.23-3,2.15-3q16.62,0,33.24,0A43.85,43.85,0,0,1,49.83,155.36Z"/><line class="cls-3" x1="56.06" x2="55.56" y2="146.02"/><line class="cls-3" x1="57.06" x2="56.56" y2="146.02"/><line class="cls-3" x1="56.06" x2="55.56" y2="146.02"/><line class="cls-4" x1="55.81" y1="152.16" x2="55.73" y2="98.06"/><line class="cls-4" x1="202.9" y1="206.26" x2="202.81" y2="152.16"/><line class="cls-4" x1="275.89" y1="152.9" x2="275.8" y2="98.81"/><line class="cls-4" x1="352.8" y1="206.02" x2="352.72" y2="151.92"/><line class="cls-4" x1="487.62" y1="152.07" x2="487.53" y2="97.98"/><line class="cls-4" x1="612.43" y1="205.8" x2="612.34" y2="151.71"/><path class="cls-5" d="M269.71,155a9.07,9.07,0,0,1,0-5.55c3.67-5.31,8.68-5.31,12.36,0a9.07,9.07,0,0,1,0,5.55C278.25,160.25,273.06,160,269.71,155Z"/><path class="cls-5" d="M618.56,149.47c3.53,12.26-15.88,12.25-12.36,0C609.87,144.16,614.89,144.16,618.56,149.47Z"/><path class="cls-5" d="M347,155.35a8,8,0,0,1-.43-6.23c3.5-5.32,8.8-5.32,12.32,0A6.75,6.75,0,0,1,347,155.35Z"/><path class="cls-5" d="M493.74,149.12c3.48,12.22-15.81,12.21-12.33,0C484.93,143.8,490.22,143.8,493.74,149.12Z"/><path class="cls-5" d="M49.83,155.36a8.34,8.34,0,0,1-.29-5.84,6.93,6.93,0,0,1,12.44,0A6.76,6.76,0,0,1,49.83,155.36Z"/><path class="cls-5" d="M209.08,149.52c3.23,12.21-15.68,12.2-12.44,0A6.93,6.93,0,0,1,209.08,149.52Z"/></g></g></svg>