<svg xmlns="http://www.w3.org/2000/svg" viewBox="0 0 713.65 18.04"><defs><style>.cls-1{fill:#fefefe;}.cls-2{fill:#ddd;}.cls-3{fill:#0d61fe;}</style></defs><g id="Livello_2" data-name="Livello 2"><g id="Livello_1-2" data-name="Livello 1"><path class="cls-1" d="M356.86,17.42C238.79,15.61,115.58,20.88,0,15.66c.12-4.87.07-9.74,0-14.6C0,.17.21-.12,1.07,0q355.34,0,710.69,0c1.59,0,1.93.35,1.89,1.9-.12,4.8-.08,9.6,0,14.4C596.87,19.53,475.23,16.31,356.86,17.42Z"/><path class="cls-2" d="M62,5.63q67.32-.11,134.66,0a42.3,42.3,0,0,1,.28,5.84c-44.89-.65-90.33-.65-135.22,0A42.37,42.37,0,0,1,62,5.63Z"/><path class="cls-2" d="M481.85,11.46c-41-.63-82.42-.62-123.39,0,.11-2.08.15-4.16.44-6.22,40.62.68,81.89.67,122.51,0C481.7,7.3,481.75,9.39,481.85,11.46Z"/><path class="cls-2" d="M606.25,11.13c-37.61.32-75.44-.61-112.95.33.1-2.07.15-4.16.44-6.22,37.32,1,75,0,112.46.35A13.26,13.26,0,0,1,606.25,11.13Z"/><path class="cls-2" d="M618.56,5.59H706.2c2.72,0,3.51.82,3.32,3.38a2.07,2.07,0,0,1-2.25,2.15q-44.38,0-88.75,0A13.43,13.43,0,0,1,618.56,5.59Z"/><path class="cls-2" d="M347,11.46c-21.54-.93-43.38,0-65-.33a13.26,13.26,0,0,1,0-5.54c21.47-.34,43.2.66,64.55-.35C346.86,7.3,346.91,9.39,347,11.46Z"/><path class="cls-2" d="M209.08,5.63l60.59,0a13.26,13.26,0,0,1,0,5.54c-20.26.33-40.76-.62-60.92.35A44,44,0,0,1,209.08,5.63Z"/><path class="cls-2" d="M49.83,11.48c-11-1-22.41-.08-33.56-.31-2.06,0-2.13-1.11-2.12-2.59,0-2.59.23-3,2.15-3l33.24,0A44,44,0,0,1,49.83,11.48Z"/><path class="cls-3" d="M269.71,11.13a9,9,0,0,1,0-5.54c3.67-5.31,8.68-5.31,12.36,0a9,9,0,0,1,0,5.54C278.25,16.37,273.06,16.09,269.71,11.13Z"/><path class="cls-3" d="M618.56,5.59c3.53,12.26-15.88,12.24-12.36,0C609.87.28,614.89.28,618.56,5.59Z"/><path class="cls-3" d="M347,11.46a7.92,7.92,0,0,1-.43-6.22c3.5-5.33,8.8-5.33,12.32,0A6.74,6.74,0,0,1,347,11.46Z"/><path class="cls-3" d="M493.74,5.24c3.48,12.22-15.81,12.21-12.33,0C484.93-.09,490.22-.09,493.74,5.24Z"/><path class="cls-3" d="M49.83,11.48a8.37,8.37,0,0,1-.29-5.85A6.94,6.94,0,0,1,62,5.63,6.76,6.76,0,0,1,49.83,11.48Z"/><path class="cls-3" d="M209.08,5.63c3.23,12.21-15.68,12.2-12.44,0A6.94,6.94,0,0,1,209.08,5.63Z"/></g></g></svg>